<svg xmlns="http://www.w3.org/2000/svg" width="300" height="300" viewBox="0 0 41 41" shape-rendering="crispEdges"><path fill="#ffffff" d="M0 0h41v41H0z"/><path stroke="#000000" d="M2 2.5h7m1 0h1m1 0h2m2 0h1m2 0h3m1 0h7m2 0h7M2 3.5h1m5 0h1m3 0h1m2 0h2m2 0h1m2 0h1m1 0h1m2 0h2m3 0h1m5 0h1M2 4.5h1m1 0h3m1 0h1m2 0h1m1 0h1m1 0h1m1 0h3m1 0h4m1 0h1m2 0h1m2 0h1m1 0h3m1 0h1M2 5.5h1m1 0h3m1 0h1m1 0h1m1 0h1m8 0h1m2 0h2m1 0h3m2 0h1m1 0h3m1 0h1M2 6.5h1m1 0h3m1 0h1m1 0h3m2 0h2m1 0h1m1 0h1m4 0h1m3 0h2m1 0h1m1 0h3m1 0h1M2 7.5h1m5 0h1m1 0h1m1 0h2m1 0h1m1 0h2m1 0h2m1 0h1m3 0h1m2 0h1m1 0h1m5 0h1M2 8.5h7m1 0h1m1 0h1m1 0h1m1 0h1m1 0h1m1 0h1m1 0h1m1 0h1m1 0h1m1 0h1m1 0h1m1 0h7M10 9.5h1m2 0h1m1 0h1m3 0h2m2 0h4m1 0h3M2 10.5h1m3 0h1m1 0h3m9 0h2m1 0h2m6 0h5m2 0h1M2 11.5h2m1 0h2m2 0h1m2 0h4m2 0h2m1 0h3m1 0h7m1 0h2m1 0h2M2 12.5h1m1 0h3m1 0h1m1 0h1m2 0h4m1 0h1m1 0h1m1 0h1m2 0h2m2 0h2m4 0h2M2 13.5h5m2 0h1m3 0h1m1 0h1m3 0h2m2 0h3m3 0h2m2 0h1m1 0h3M2 14.5h1m1 0h1m3 0h1m3 0h2m1 0h10m1 0h1m4 0h3m1 0h4M3 15.5h4m2 0h9m1 0h1m5 0h1m1 0h4m3 0h2m1 0h1M2 16.5h1m1 0h1m2 0h5m1 0h3m1 0h1m2 0h1m1 0h1m1 0h3m2 0h1m1 0h1m1 0h5M2 17.5h6m1 0h1m1 0h4m2 0h1m3 0h1m1 0h2m3 0h1m1 0h1m2 0h2m1 0h1M2 18.5h3m1 0h1m1 0h1m3 0h2m2 0h1m1 0h1m2 0h3m2 0h1m1 0h6m1 0h3M3 19.5h1m2 0h1m2 0h1m1 0h1m1 0h3m4 0h2m2 0h2m1 0h1m1 0h1m4 0h1m2 0h1M2 20.5h1m1 0h1m2 0h3m2 0h2m3 0h1m1 0h3m1 0h3m3 0h2m1 0h1M3 21.5h2m1 0h2m4 0h2m2 0h4m1 0h3m2 0h1m1 0h2m3 0h1m1 0h3M2 22.5h2m1 0h1m2 0h2m1 0h4m1 0h1m1 0h2m2 0h3m1 0h1m1 0h1m2 0h3m1 0h2M2 23.5h2m1 0h3m1 0h2m2 0h1m1 0h1m1 0h1m2 0h1m3 0h2m1 0h4m2 0h2M3 24.5h3m1 0h2m3 0h1m1 0h1m2 0h3m2 0h1m1 0h2m1 0h3m1 0h1m1 0h5M2 25.5h1m1 0h1m2 0h1m1 0h3m1 0h3m1 0h1m1 0h3m1 0h2m3 0h2m1 0h4m1 0h3M2 26.5h4m2 0h1m1 0h5m1 0h1m3 0h2m1 0h1m2 0h1m2 0h1m2 0h1m2 0h4M2 27.5h2m3 0h1m1 0h3m1 0h2m1 0h1m1 0h1m2 0h2m1 0h2m2 0h3m2 0h2m1 0h1M4 28.5h1m3 0h1m3 0h1m1 0h3m1 0h3m1 0h4m1 0h4m2 0h1m1 0h2M5 29.5h1m3 0h1m3 0h4m2 0h2m2 0h3m4 0h1m2 0h4m1 0h1M2 30.5h10m2 0h1m1 0h2m1 0h3m1 0h2m5 0h9M10 31.5h1m2 0h3m1 0h3m3 0h3m1 0h1m2 0h1m3 0h1M2 32.5h7m1 0h1m1 0h2m3 0h1m2 0h1m1 0h5m1 0h1m1 0h1m1 0h1m1 0h1M2 33.5h1m5 0h1m6 0h2m1 0h1m2 0h6m2 0h2m3 0h3M2 34.5h1m1 0h3m1 0h1m1 0h7m1 0h1m3 0h1m5 0h1m1 0h7m1 0h1M2 35.5h1m1 0h3m1 0h1m2 0h2m1 0h1m1 0h1m3 0h2m3 0h3m1 0h5m1 0h1m2 0h1M2 36.5h1m1 0h3m1 0h1m2 0h5m1 0h1m1 0h1m1 0h1m1 0h7m1 0h2m2 0h2M2 37.5h1m5 0h1m2 0h2m1 0h1m1 0h4m1 0h5m3 0h1m2 0h1m1 0h4M2 38.5h7m1 0h4m5 0h1m2 0h2m2 0h1m2 0h1m1 0h3m2 0h3"/></svg>
